<?xml version="1.0" encoding="UTF-8"?> <!-- Generator: Adobe Illustrator 26.1.0, SVG Export Plug-In . SVG Version: 6.00 Build 0) --> <svg xmlns="http://www.w3.org/2000/svg" xmlns:xlink="http://www.w3.org/1999/xlink" id="Слой_1" x="0px" y="0px" viewBox="0 0 397 151" style="enable-background:new 0 0 397 151;" xml:space="preserve"> <style type="text/css"> .st0{fill:#333333;} .st1{fill:#CCCCCC;} .st2{fill:#999999;} .st3{fill:#072636;} .st4{fill:#FF9999;} .st5{fill:#FF6666;} .st6{fill:#FF0000;} .st7{fill:#FFFFFF;} </style> <path class="st0" d="M234.3,108.3l-73.6,42.5l-28.4-16.3l-64-2.1l-32.8-18.8l103.6-59.8L234.3,108.3z"></path> <path class="st1" d="M68.2,86.9v45.5l-32.6-18.8V68.1L68.2,86.9z"></path> <path class="st2" d="M170.2,73.1l-102,59.4V86.9l102-59.4V73.1z"></path> <path class="st3" d="M157,80l-34.2,19.9v-2.7L73.5,126V88.8l83.1-48.4L157,80z"></path> <path class="st1" d="M152.9,97.7v45.5l-5.2-3V94.7L152.9,97.7z"></path> <path class="st2" d="M158.5,140l-5.6,3.3V97.7l5.6-3.3V140z"></path> <path class="st2" d="M122.9,100.2l-2.2,1.3V62.2l2.2-1.3V100.2z"></path> <path class="st2" d="M108.5,106.8l-2.2,1.3V68.8l2.2-1.3V106.8z"></path> <path class="st2" d="M92.2,116.3l-2.2,1.3V78.3l2.2-1.3V116.3z"></path> <path class="st1" d="M217.4,60.4v45.5l-5.2-3V57.4L217.4,60.4z"></path> <path class="st2" d="M223,102.7l-5.6,3.3V60.4l5.6-3.3V102.7z"></path> <path class="st4" d="M170.2,27.5l-102,59.4L35.6,68.1l102-59.4L170.2,27.5z"></path> <path class="st5" d="M26,113.1v27l-26-15v-27L26,113.1z"></path> <path class="st6" d="M226.9,58.9l-79.2,45.7v-4.4l79.2-45.7V58.9z"></path> <path class="st6" d="M170.2,33.3l-102,59.4V87l102-59.4V33.3z"></path> <path class="st4" d="M226.9,54.5l-79.2,45.7l-95-54.5L132,0L226.9,54.5z"></path> <path class="st6" d="M43.8,129.8L26,140v-27l17.8-10.3V129.8z"></path> <path class="st5" d="M147.7,100.2v4.4L52.8,50v-4.4L147.7,100.2z"></path> <path class="st0" d="M396.8,119l-17.9,10.5l-28.6,16.8l-9-15.6L361,119l17.9-10.5L396.8,119z"></path> <path class="st4" d="M43.8,102.8L25.9,113L0,98.1l17.8-10.3L43.8,102.8z"></path> <path class="st1" d="M350.3,87.9v58.4L336,138V79.6L350.3,87.9z"></path> <path class="st6" d="M356.6,142.6l-6.3,3.6V87.8l6.3-3.6V142.6z"></path> <path class="st7" d="M356.6,84.2l-6.3,3.7L336,79.7l6.3-3.7L356.6,84.2z"></path> <path class="st7" d="M348.1,92.6V97l-10.7-6.2v-4.4L348.1,92.6z"></path> <path class="st7" d="M348.1,101.3v4.4l-10.7-6.2v-4.4L348.1,101.3z"></path> <path class="st7" d="M348.1,109.8v4.4l-10.7-6.2v-4.4L348.1,109.8z"></path> <path class="st7" d="M348.1,119.1v4.4l-10.7-6.2v-4.4L348.1,119.1z"></path> <path class="st1" d="M166.1,110.4v15.5l11-6.3v-15.5L166.1,110.4z"></path> <path class="st2" d="M161.3,123.1l4.8,2.8v-15.5l-4.8-2.8V123.1z"></path> <path class="st7" d="M161.3,107.6l4.9,2.8l11-6.3l-4.8-2.8L161.3,107.6z"></path> <path class="st7" d="M167.8,110.5v3.4l3.8-2.2v-3.4L167.8,110.5z"></path> <path class="st7" d="M173.4,107.3v1.3l2.8-1.6v-1.3L173.4,107.3z"></path> <path class="st1" d="M193.6,94.5V110l11-6.3V88.2L193.6,94.5z"></path> <path class="st2" d="M188.8,107.3l4.8,2.8V94.6l-4.8-2.8V107.3z"></path> <path class="st7" d="M188.8,91.7l4.9,2.8l11-6.3l-4.8-2.8L188.8,91.7z"></path> <path class="st7" d="M195.3,94.7v3.4l3.8-2.2v-3.4L195.3,94.7z"></path> <path class="st7" d="M200.9,91.4v1.3l2.8-1.6v-1.3L200.9,91.4z"></path> <polygon class="st5" points="68.2,86.9 68.1,92.6 35.6,73.8 35.6,68.1 "></polygon> </svg> 