<?xml version="1.0" encoding="UTF-8"?> <!-- Generator: Adobe Illustrator 26.1.0, SVG Export Plug-In . SVG Version: 6.00 Build 0) --> <svg xmlns="http://www.w3.org/2000/svg" xmlns:xlink="http://www.w3.org/1999/xlink" id="Слой_1" x="0px" y="0px" viewBox="0 0 213 147" style="enable-background:new 0 0 213 147;" xml:space="preserve"> <style type="text/css"> .st0{fill:#669966;} .st1{fill:#666666;} .st2{fill:#003300;} .st3{fill:#99FF99;} .st4{fill:#339933;} </style> <path class="st0" d="M-0.6,98.9l83.4,47c0.5,0.3,1,0.3,1.5,0L210,73.3c1-0.6,1-2,0-2.6l-83.4-47c-0.5-0.3-1-0.3-1.5,0L-0.6,96.3 C-1.6,96.9-1.6,98.3-0.6,98.9z"></path> <path class="st1" d="M165,85.6c-5.8,0-10.4-2.5-10.4-5.5s4.7-5.5,10.4-5.5c5.8,0,10.4,2.5,10.4,5.5S170.8,85.6,165,85.6z"></path> <path class="st2" d="M163.3,68.7v11.2c0,0.4,0.8,0.7,1.7,0.7s1.7-0.3,1.7-0.7V68.7H163.3z"></path> <path class="st3" d="M150.6,66.2c0,0.1,0,0.2,0,0.3c0,2.7,6.5,4.8,14.4,4.8s14.4-2.2,14.4-4.8c0-0.1,0-0.2,0-0.3h0L165,0L150.6,66.2 L150.6,66.2z"></path> <path class="st4" d="M150.6,66.2c0,0.1,0,0.2,0,0.3c0,2.7,6.5,4.8,14.4,4.8V0L150.6,66.2L150.6,66.2z"></path> <path class="st1" d="M37.7,102.2c-5.8,0-10.4-2.5-10.4-5.5s4.7-5.5,10.4-5.5c5.8,0,10.4,2.5,10.4,5.5S43.5,102.2,37.7,102.2z"></path> <path class="st2" d="M36,85.2v11.2c0,0.4,0.8,0.7,1.7,0.7s1.7-0.3,1.7-0.7V85.2H36z"></path> <path class="st3" d="M23.3,82.7c0,0.1,0,0.2,0,0.3c0,2.7,6.4,4.8,14.4,4.8s14.4-2.2,14.4-4.8c0-0.1,0-0.2,0-0.3h0L37.7,16.5 L23.3,82.7L23.3,82.7z"></path> <path class="st4" d="M23.3,82.7c0,0.1,0,0.2,0,0.3c0,2.7,6.5,4.8,14.4,4.8V16.5L23.3,82.7L23.3,82.7z"></path> <path class="st1" d="M80.1,75.4c-5.8,0-10.4-2.5-10.4-5.5s4.7-5.5,10.4-5.5c5.8,0,10.4,2.5,10.4,5.5S85.9,75.4,80.1,75.4z"></path> <path class="st2" d="M78.4,58.4v11.2c0,0.4,0.8,0.7,1.7,0.7c0.9,0,1.7-0.3,1.7-0.7V58.4H78.4z"></path> <path class="st3" d="M66.7,31.3v18.9c0,5.2,6,9.5,13.4,9.5c0.7,0,1.4,0,2.1-0.1c6.4-0.7,11.3-4.6,11.3-9.4V31.3 c0-5.2-6-9.5-13.4-9.5c-6.4,0-11.7,3.1-13.1,7.4C66.8,29.8,66.7,30.5,66.7,31.3z"></path> <path class="st4" d="M66.7,31.3v18.9c0,5.2,6,9.5,13.4,9.5c0.7,0,1.4,0,2.1-0.1c0.2-0.7,0.3-1.4,0.3-2.1V38.5c0-5.2-6-9.5-13.4-9.5 c-0.7,0-1.4,0-2.1,0.1C66.8,29.8,66.7,30.5,66.7,31.3z"></path> <path class="st1" d="M93,129.6c-6.4,0-11.7-2.8-11.7-6.1c0-3.4,5.2-6.1,11.7-6.1c6.4,0,11.7,2.8,11.7,6.1 C104.7,126.8,99.5,129.6,93,129.6z"></path> <path class="st2" d="M91.1,110.6v12.6c0,0.4,0.9,0.8,1.9,0.8c1.1,0,1.9-0.4,1.9-0.8v-12.6H91.1z"></path> <path class="st3" d="M78,80.2v21.2c0,5.8,6.7,10.6,15,10.6c0.8,0,1.6,0,2.3-0.1c7.2-0.8,12.6-5.2,12.6-10.5V80.2 c0-5.8-6.7-10.6-15-10.6c-7.1,0-13.1,3.5-14.6,8.2C78.2,78.6,78,79.4,78,80.2z"></path> <path class="st4" d="M78,80.2v21.2c0,5.8,6.7,10.6,15,10.6c0.8,0,1.6,0,2.3-0.1c0.2-0.8,0.4-1.5,0.4-2.4V88.3 c0-5.8-6.7-10.6-15-10.6c-0.8,0-1.6,0-2.4,0.1C78.2,78.6,78,79.4,78,80.2z"></path> <path class="st1" d="M131.7,55c-5.6,0-10.1-2.4-10.1-5.3c0-2.9,4.5-5.3,10.1-5.3c5.6,0,10.1,2.4,10.1,5.3 C141.8,52.6,137.3,55,131.7,55z"></path> <path class="st2" d="M130,38.6v10.9c0,0.4,0.7,0.7,1.7,0.7c0.9,0,1.7-0.3,1.7-0.7V38.6H130z"></path> <path class="st3" d="M118.7,12.3v18.3c0,5.1,5.8,9.2,13,9.2c0.7,0,1.4,0,2-0.1c6.2-0.7,10.9-4.5,10.9-9V12.3c0-5.1-5.8-9.2-13-9.2 c-6.2,0-11.3,3-12.7,7.1C118.9,10.9,118.7,11.6,118.7,12.3z"></path> <path class="st4" d="M118.7,12.3v18.3c0,5.1,5.8,9.2,13,9.2c0.7,0,1.4,0,2-0.1c0.2-0.7,0.3-1.3,0.3-2V19.3c0-5.1-5.8-9.2-13-9.2 c-0.7,0-1.4,0-2,0.1C118.9,10.9,118.7,11.6,118.7,12.3z"></path> <path class="st1" d="M120.1,89.3c-4.2,0-7.5-1.8-7.5-4c0-2.2,3.4-4,7.5-4c4.2,0,7.5,1.8,7.5,4C127.6,87.5,124.3,89.3,120.1,89.3z"></path> <path class="st2" d="M118.9,77v8.1c0,0.3,0.6,0.5,1.2,0.5c0.7,0,1.2-0.2,1.2-0.5V77H118.9z"></path> <path class="st3" d="M109.8,75.2c0,0.1,0,0.1,0,0.2c0,1.9,4.6,3.5,10.4,3.5c5.7,0,10.4-1.6,10.4-3.5c0-0.1,0-0.1,0-0.2h0l-10.4-47.6 L109.8,75.2L109.8,75.2z"></path> <path class="st4" d="M109.8,75.2c0,0.1,0,0.1,0,0.2c0,1.9,4.6,3.5,10.4,3.5V27.6L109.8,75.2L109.8,75.2z"></path> </svg> 