<?xml version="1.0" standalone="no"?>
<!DOCTYPE svg PUBLIC "-//W3C//DTD SVG 20010904//EN"
 "http://www.w3.org/TR/2001/REC-SVG-20010904/DTD/svg10.dtd">
<svg version="1.0" xmlns="http://www.w3.org/2000/svg"
 width="1280.000000pt" height="1280.000000pt" viewBox="0 0 1280.000000 1280.000000"
 preserveAspectRatio="xMidYMid meet">
<metadata>
Created by potrace 1.15, written by Peter Selinger 2001-2017
</metadata>
<g transform="translate(0.000000,1280.000000) scale(0.100000,-0.100000)"
fill="#000000" stroke="none">
<path d="M1805 12789 c-420 -44 -856 -246 -1174 -544 -347 -328 -576 -797
-621 -1275 -8 -81 -10 -1447 -8 -4650 l4 -4535 22 -110 c101 -514 372 -951
777 -1255 306 -229 665 -374 1014 -410 144 -14 9028 -14 9172 0 595 61 1149
398 1479 900 120 182 221 416 274 631 59 243 56 -48 56 4855 0 3069 -3 4525
-11 4595 -45 451 -252 897 -561 1210 -330 334 -762 540 -1237 588 -125 13
-9062 13 -9186 0z m8985 -1133 c234 -56 413 -157 571 -323 182 -191 285 -411
309 -661 14 -153 14 -8386 -1 -8541 -30 -323 -189 -600 -460 -801 -123 -91
-257 -150 -439 -191 -74 -17 -8439 -26 -8625 -9 -166 15 -273 44 -406 110
-207 102 -397 292 -499 499 -65 130 -95 238 -110 396 -14 153 -14 8392 0 8536
24 236 107 428 267 611 195 224 450 360 728 388 44 4 1995 7 4335 6 4067 -2
4258 -2 4330 -20z"/>
<path d="M4003 10565 c-73 -37 -150 -117 -187 -194 l-31 -66 0 -1560 0 -1560
28 -58 c39 -78 129 -174 192 -203 49 -23 56 -24 363 -24 l312 0 0 -2195 0
-2195 -690 0 -690 0 0 -130 0 -130 2953 2 2952 3 3 128 3 127 -1011 0 -1010 0
0 2195 0 2195 251 0 251 0 125 55 c69 31 127 55 128 53 9 -10 56 -178 69 -246
25 -132 38 -455 26 -629 -11 -158 -15 -186 -79 -488 -76 -365 -142 -719 -156
-849 -19 -172 -20 -564 -1 -716 38 -303 108 -498 242 -677 89 -119 201 -202
337 -251 66 -24 85 -26 232 -26 147 0 166 2 241 27 229 76 351 239 434 578 48
198 63 343 62 634 0 415 -7 480 -172 1640 -161 1128 -180 1295 -195 1675 -5
120 -2 164 15 254 11 61 20 129 20 152 0 35 149 933 180 1084 l9 45 -111 112
-111 112 15 70 16 71 -77 0 -76 1 -250 270 -250 269 -74 -74 -74 -74 167 -191
c91 -104 166 -193 166 -196 0 -3 -112 -5 -250 -5 l-250 0 0 323 c0 349 -6 399
-53 480 -34 58 -127 140 -197 175 l-55 27 -1845 3 -1846 2 -51 -25z m3487
-1815 l0 -1240 -1575 0 -1575 0 0 1240 0 1240 1575 0 1575 0 0 -1240z m1349
492 l84 -93 -23 -142 c-13 -78 -26 -148 -30 -156 -5 -10 -14 -4 -34 22 -46 60
-67 131 -76 262 -5 66 -12 143 -16 170 -3 30 -2 46 3 40 5 -5 47 -52 92 -103z
m-229 -46 c0 -211 49 -363 151 -471 l52 -55 -17 -138 c-10 -75 -26 -171 -37
-212 -32 -125 -42 -258 -35 -480 11 -357 44 -634 171 -1445 202 -1285 243
-1652 232 -2115 -15 -636 -146 -900 -455 -918 -167 -9 -267 29 -382 146 -168
171 -240 431 -240 870 0 310 30 570 101 881 94 407 120 573 140 861 24 359
-10 690 -96 930 -27 75 -119 267 -136 284 -5 6 -9 377 -9 913 l0 902 58 17
c31 9 149 45 262 80 113 34 213 63 223 63 15 1 17 -11 17 -113z"/>
</g>
</svg>
