<svg
  xmlns="http://www.w3.org/2000/svg"
  xmlns:xlink="http://www.w3.org/1999/xlink"
  id="Слой_1"
  x="0px"
  y="0px"
  viewBox="0 0 135 109"
  style="enable-background:new 0 0 135 109;"
  xml:space="preserve"
>
  <style type="text/css">
    .st0 {
      fill: #333333;
    }

    .st1 {
      fill: #072636;
    }

    .st2 {
      fill: #13597F;
    }

    .st3 {
      fill: #E5AE89;
    }

    .st4 {
      fill: #E5852E;
    }

    .st5 {
      fill: #E5A173;
    }

    .st6 {
      fill: #E2AB86;
    }

    .st7 {
      fill: #379ACC;
    }

    .st8 {
      fill: #0072B2;
    }

    .st9 {
      fill: #5FAED6;
    }

    .st10 {
      fill: #FFFFFF;
    }
  </style>
  <path
    class="st0"
    d="M134.7,49L32.3,108.1c-0.2,0.1-0.3,0.1-0.5,0L0.3,89.9C0,89.7,0,89.2,0.3,89l102.4-59.1c0.2-0.1,0.3-0.1,0.5,0 l31.6,18.2C135.1,48.3,135.1,48.8,134.7,49z"
  />
  <path
    class="st1"
    d="M43.9,94.9l-10.1-5.8l-4,7l10.1,5.8L43.9,94.9z"
  />
  <path
    class="st1"
    d="M103.1,60.7L93,54.9l-4,7l10.1,5.8L103.1,60.7z"
  />
  <path
    class="st1"
    d="M113.5,54.7l-10.1-5.8l-4,7l10.1,5.8L113.5,54.7z"
  />
  <path
    class="st2"
    d="M126.5,40.8L55.3,82L22.7,63.2L94.1,22L126.5,40.8z"
  />
  <path
    class="st3"
    d="M125.4,27.8c0,6.3-2.7,10.3-6.7,12.7L58.9,75.3l0,0c3.9-1.9,6.5-6.1,6.5-12.3c0-10.5-7.3-22.6-16.2-26.8 c-3.8-1.8-7.3-1.8-10-0.5c0,0,59.2-34.5,61-35c3.1-0.8,6.8-1,10.4,0.7c3.7,1.8,6.5,4.5,9.2,8.3C123.7,14.9,125.4,21.6,125.4,27.8z"
  />
  <path
    class="st4"
    d="M62.8,48.3l59.6-34.4c0,0,3.6,7,3,15c-0.5,6.9-3.3,9.5-5.2,10.9c-1,0.5-60.2,35.1-60.2,35.1s3.3-7.8,3.8-12.6 C64.3,57.5,62.8,48.3,62.8,48.3z"
  />
  <path
    class="st5"
    d="M56.1,39.5c0,0,49.9-28.1,52.9-30.5c2.9-2.3,4.3-6,4.3-6s9.5,7,10.1,14.9c0.6,6.5-5.5,10.2-6.7,11.4 c-1.3,1.2-60.6,35.3-60.6,35.3s3.3-7.8,3.8-12.6C60.5,47.1,56.1,39.5,56.1,39.5z"
  />
  <path
    class="st6"
    d="M66.5,62.3c-0.1,10.5-7.4,16.1-16.2,12.3c-8.9-3.9-16.2-15.7-16.2-26.8s7.3-16.6,16.2-12.3 C59.2,39.7,66.6,51.7,66.5,62.3z"
  />
  <path
    class="st7"
    d="M32.8,80.6l0.1,18.7L2.9,82L2.8,63.2L5,48.6l30,17.3L32.8,80.6L32.8,80.6L32.8,80.6z"
  />
  <path
    class="st1"
    d="M33.5,67.6l-1.7,11.3l-28-16.2l1.7-11.3L33.5,67.6z"
  />
  <path
    class="st8"
    d="M126.6,45.2L55.3,86.4l-7,4l-15.4,8.9l-0.1-18.8l0,0L35,65.9l20.1-11.7v13.4V82l71.4-41.2L126.6,45.2z"
  />
  <path
    class="st1"
    d="M46.3,71.8l-11.9,6.8l1.7-11.4l12.2-7.1v7.3L46.3,71.8z"
  />
  <path
    class="st9"
    d="M55.1,54.2L35,65.9L5,48.6L25.1,37L55.1,54.2z"
  />
  <path
    class="st10"
    d="M8.6,75.5v4.4l-5.1-3v-4.4L8.6,75.5z"
  />
  <path
    class="st1"
    d="M26.3,85.7v4.4l-17.4-10v-4.4L26.3,85.7z"
  />
  <path
    class="st10"
    d="M31.7,88.9v4.4l-5.1-3v-4.4L31.7,88.9z"
  />
  <path
    class="st1"
    d="M47.1,92.8c0-3.6-2-5.3-4.5-3.9s-4.5,5.4-4.5,8.9s2,5.3,4.5,3.9C45.1,100.4,47.1,96.4,47.1,92.8z"
  />
  <path
    class="st1"
    d="M106.3,58.6c0-3.6-2-5.3-4.5-3.9c-2.5,1.4-4.5,5.4-4.5,8.9s2,5.3,4.5,3.9C104.3,66.2,106.3,62.2,106.3,58.6z"
  />
  <path
    class="st1"
    d="M116.7,52.6c0-3.6-2-5.3-4.5-3.9c-2.5,1.4-4.5,5.4-4.5,8.9s2,5.3,4.5,3.9C114.7,60.1,116.7,56.1,116.7,52.6z"
  />
</svg>