<svg
  xmlns="http://www.w3.org/2000/svg"
  viewBox="0 0 75 64"
>
  <path
    d="M74,36L27.2,63.1c-0.2,0.1-0.4,0.1-0.6,0L0.3,47.9c-0.4-0.2-0.4-0.8,0-1.1l46.8-27.1c0.2-0.1,0.4-0.1,0.6,0 L74,35C74.5,35.2,74.5,35.8,74,36z"
    fill="#333333"
  />
  <g fill="#072636">
    <path
      d="M34,52.2l-3.4,6l-2.8-1.4l-0.4-0.2c-0.8-0.6-1.3-1.8-1.3-3.4c0-1.6,0.5-3.3,1.2-4.7l6.1,3.5L34,52.2z"
    />
    <path
      d="M34,48.7c0,1.1-0.2,2.1-0.6,3.2c-0.7,2-2,3.9-3.4,4.6c-0.8,0.5-1.6,0.5-2.2,0.2l-0.4-0.2 c-0.8-0.6-1.3-1.8-1.3-3.4c0-1.6,0.5-3.3,1.2-4.7c0.7-1.3,1.6-2.5,2.7-3.1C32.2,44.1,34,45.6,34,48.7z"
    />
    <path
      d="M65.5,33.9l-3.4,6l-2.8-1.4l-0.4-0.2c-0.8-0.6-1.3-1.8-1.3-3.4c0-1.6,0.5-3.3,1.2-4.7l6.1,3.5L65.5,33.9z"
    />
    <path
      d="M65.5,30.5c0,1.1-0.2,2.1-0.6,3.2c-0.7,2-2,3.9-3.4,4.6c-0.8,0.5-1.6,0.5-2.2,0.2l-0.4-0.2 c-0.8-0.6-1.3-1.8-1.3-3.4c0-1.6,0.5-3.3,1.2-4.7c0.7-1.3,1.6-2.5,2.7-3.1C63.7,25.8,65.5,27.3,65.5,30.5z"
    />
  </g>
  <g fill="var(--body-alt, #EACB33)">
    <path d="M22,47.2v9.2L3.1,45.5v-9.2L4,35.2l19,10.9L22,47.2z" />
    <path
      d="M72.7,17.4v10l-2.3,3.2L33.3,52.1L22,56.4v-9.3l0.9-1.1l16.8-10l2.1-10.8L68.5,9.7L72.7,17.4z"
    />
    <path d="M68.5,9.7L41.8,25.2L23.9,14.8L51.7,0L68.5,9.7z" />
    <path d="M39.7,36L22.8,46.1L4,35.2l16.6-9.6L39.7,36z" />
  </g>
  <g fill="var(--body-alt, #735F00)">
    <path d="M36.7,50l-5.5,3.3l-3.6,2.1l-5.6,1v-3.3l10.8-6.2C34.9,45.8,36.6,47.2,36.7,50z" />
    <path d="M72.7,23.7v3.7l-2.3,3.2l-2.1,1.2l-7.7,4.4c0-2.9,1.8-6.4,3.9-7.6L72.7,23.7z" />
    <path d="M22,53.1v3.3L3.1,45.5v-3.2L22,53.1z" />
    <path d="M68.4,26.3c-2.1,1.3-3.5,4.9-3.7,7.8l-28,16c-0.1-2.8-1.8-4.3-3.9-3.2L68.4,26.3z" />
  </g>
  <g>
    <g fill="#FFFFFF">
      <path d="M21.7,47.4v4.2l-3.4-2v-4.2L21.7,47.4z" />
      <path d="M6.7,38.8V43l-3.4-2v-4.2L6.7,38.8z" />
    </g>
    <path
      d="M71.7,19.5v4.9l1.1-0.7v-4.9L71.7,19.5z"
      fill="#BF0000"
    />
    <path
      class="st1"
      d="M17.6,45.1v4.2L7.5,43.4v-4.2L17.6,45.1z"
      fill="#a7a7a7"
    />
  </g>
  <g fill="#072636">
    <path d="M41.8,25.2L39.7,36L20.6,25.6l3.3-10.8L41.8,25.2z" />
    <path d="M43,25.5l-2.1,10.2l11-6.5L51,20.8L43,25.5z" />
    <path d="M51.9,20.3l1.1,8.4l7.4-4.3l-1-8.4L51.9,20.3z" />
    <path d="M60.2,15.4l1.1,8.4l10.3-6l-3.5-6.9L60.2,15.4z" />
  </g>
  <g class="wheel-front">
    <path
      d="M36.7,50.3c0,3.1-1.8,6.6-3.9,7.7c-2.1,1.2-3.9-0.4-3.9-3.4v-0.1c0-3.1,1.8-6.5,3.9-7.6 c2.1-1.2,3.7,0.2,3.9,3.1C36.7,50.1,36.7,50.2,36.7,50.3z"
    />
    <path
      d="M68.3,32c0,3.1-1.8,6.6-3.9,7.7c-2.1,1.2-3.9-0.4-3.9-3.4v-0.1c0-3.1,1.8-6.5,3.9-7.6c2.1-1.2,3.7,0.2,3.9,3.1 C68.3,31.8,68.3,31.9,68.3,32z"
    />
  </g>
</svg>